<svg width="52" height="52" viewBox="0 0 52 52" fill="none" xmlns="http://www.w3.org/2000/svg">
<path d="M8.82174 6.495C8.39875 6.495 7.99309 6.66303 7.69399 6.96212C7.3949 7.26122 7.22687 7.66688 7.22687 8.08986C7.22687 8.51285 7.3949 8.91851 7.69399 9.21761C7.99309 9.5167 8.39875 9.68473 8.82174 9.68473H9.60641C9.95273 9.68533 10.2894 9.79864 10.5657 10.0075C10.8419 10.2164 11.0426 10.5095 11.1375 10.8426L16.1964 28.5457C16.4825 29.5447 17.0862 30.4234 17.916 31.049C18.7459 31.6745 19.7568 32.0129 20.796 32.0129H35.3699C36.3264 32.0131 37.2609 31.7266 38.0529 31.1904C38.8449 30.6543 39.4581 29.893 39.8132 29.005L44.5149 17.2476C44.7082 16.7638 44.78 16.24 44.7242 15.722C44.6683 15.2041 44.4864 14.7077 44.1943 14.2762C43.9023 13.8448 43.509 13.4915 43.0489 13.2471C42.5888 13.0027 42.0758 12.8748 41.5548 12.8745H15.0353L14.2028 9.96543C13.9174 8.96632 13.3145 8.08727 12.4853 7.46116C11.656 6.83504 10.6455 6.4959 9.60641 6.495H8.82174ZM19.2649 27.6653L15.9476 16.0642H41.5548L36.85 27.8216C36.7315 28.1172 36.5272 28.3706 36.2634 28.5491C35.9996 28.7277 35.6884 28.8231 35.3699 28.8232H20.796C20.4497 28.8226 20.113 28.7093 19.8368 28.5004C19.5606 28.2915 19.3598 27.9984 19.2649 27.6653ZM21.5807 44.7719C22.209 44.7719 22.8312 44.6481 23.4117 44.4076C23.9922 44.1672 24.5196 43.8148 24.9639 43.3705C25.4082 42.9262 25.7606 42.3987 26.0011 41.8182C26.2415 41.2377 26.3653 40.6156 26.3653 39.9873C26.3653 39.3589 26.2415 38.7368 26.0011 38.1563C25.7606 37.5758 25.4082 37.0483 24.9639 36.604C24.5196 36.1597 23.9922 35.8073 23.4117 35.5668C22.8312 35.3264 22.209 35.2026 21.5807 35.2026C20.3117 35.2026 19.0948 35.7067 18.1975 36.604C17.3002 37.5013 16.7961 38.7183 16.7961 39.9873C16.7961 41.2562 17.3002 42.4732 18.1975 43.3705C19.0948 44.2678 20.3117 44.7719 21.5807 44.7719ZM21.5807 41.5821C21.1577 41.5821 20.752 41.4141 20.4529 41.115C20.1539 40.8159 19.9858 40.4102 19.9858 39.9873C19.9858 39.5643 20.1539 39.1586 20.4529 38.8595C20.752 38.5604 21.1577 38.3924 21.5807 38.3924C22.0037 38.3924 22.4093 38.5604 22.7084 38.8595C23.0075 39.1586 23.1756 39.5643 23.1756 39.9873C23.1756 40.4102 23.0075 40.8159 22.7084 41.115C22.4093 41.4141 22.0037 41.5821 21.5807 41.5821ZM34.3396 44.7719C34.968 44.7719 35.5901 44.6481 36.1706 44.4076C36.7511 44.1672 37.2786 43.8148 37.7229 43.3705C38.1672 42.9262 38.5196 42.3987 38.76 41.8182C39.0005 41.2377 39.1243 40.6156 39.1243 39.9873C39.1243 39.3589 39.0005 38.7368 38.76 38.1563C38.5196 37.5758 38.1672 37.0483 37.7229 36.604C37.2786 36.1597 36.7511 35.8073 36.1706 35.5668C35.5901 35.3264 34.968 35.2026 34.3396 35.2026C33.0707 35.2026 31.8537 35.7067 30.9564 36.604C30.0591 37.5013 29.555 38.7183 29.555 39.9873C29.555 41.2562 30.0591 42.4732 30.9564 43.3705C31.8537 44.2678 33.0707 44.7719 34.3396 44.7719ZM34.3396 41.5821C33.9167 41.5821 33.511 41.4141 33.2119 41.115C32.9128 40.8159 32.7448 40.4102 32.7448 39.9873C32.7448 39.5643 32.9128 39.1586 33.2119 38.8595C33.511 38.5604 33.9167 38.3924 34.3396 38.3924C34.7626 38.3924 35.1683 38.5604 35.4674 38.8595C35.7665 39.1586 35.9345 39.5643 35.9345 39.9873C35.9345 40.4102 35.7665 40.8159 35.4674 41.115C35.1683 41.4141 34.7626 41.5821 34.3396 41.5821Z" fill="#114683"/>
</svg>
